

<svg xmlns="http://www.w3.org/2000/svg" style="display:none" aria-hidden="true">

  <symbol id="icon-select" viewBox="0 0 24 24" fill="none" stroke="currentColor" stroke-width="1.5" stroke-linecap="round" stroke-linejoin="round">
    <path d="M5 3 L5 19 L9 15 L12 21 L14 20 L11 14 L17 14 Z"></path>
  </symbol>

  <symbol id="icon-road" viewBox="0 0 24 24" fill="none" stroke="currentColor" stroke-width="1.5" stroke-linecap="round" stroke-linejoin="round">
    <path d="M7 3 L5 21"></path>
    <path d="M17 3 L19 21"></path>
    <path d="M12 5 L12 8"></path>
    <path d="M12 11 L12 14"></path>
    <path d="M12 17 L12 20"></path>
  </symbol>

  <symbol id="icon-zone-residential" viewBox="0 0 24 24" fill="none" stroke="currentColor" stroke-width="1.5" stroke-linecap="round" stroke-linejoin="round">
    <path d="M4 11 L12 4 L20 11"></path>
    <path d="M6 10 L6 20 L18 20 L18 10"></path>
    <path d="M10 20 L10 14 L14 14 L14 20"></path>
  </symbol>

  <symbol id="icon-zone-commercial" viewBox="0 0 24 24" fill="none" stroke="currentColor" stroke-width="1.5" stroke-linecap="round" stroke-linejoin="round">
    <path d="M3 9 L5 5 L19 5 L21 9"></path>
    <path d="M3 9 Q5 12 7 9 Q9 12 11 9 Q13 12 15 9 Q17 12 19 9 Q21 12 21 9"></path>
    <path d="M5 11 L5 20 L19 20 L19 11"></path>
    <path d="M10 20 L10 14 L14 14 L14 20"></path>
  </symbol>

  <symbol id="icon-zone-industrial" viewBox="0 0 24 24" fill="none" stroke="currentColor" stroke-width="1.5" stroke-linecap="round" stroke-linejoin="round">
    <path d="M4 20 L4 11 L9 14 L9 11 L14 14 L14 11 L20 14 L20 20 Z"></path>
    <path d="M7 8 Q7 5 9 5 Q11 5 11 3"></path>
    <path d="M16 17 L16 18"></path>
    <path d="M11 17 L11 18"></path>
  </symbol>

  <symbol id="icon-bulldoze" viewBox="0 0 24 24" fill="none" stroke="currentColor" stroke-width="1.5" stroke-linecap="round" stroke-linejoin="round">
    <path d="M3 16 L3 10 L8 10 L11 13 L11 16 Z"></path>
    <circle cx="6" cy="18" r="2"></circle>
    <circle cx="14" cy="18" r="2"></circle>
    <path d="M11 13 L20 13 L20 18 L17 18"></path>
    <path d="M20 8 L20 13"></path>
  </symbol>

  <symbol id="icon-power" viewBox="0 0 24 24" fill="none" stroke="currentColor" stroke-width="1.5" stroke-linecap="round" stroke-linejoin="round">
    <path d="M13 3 L5 13 L11 13 L9 21 L19 11 L13 11 Z"></path>
  </symbol>

  <symbol id="icon-water" viewBox="0 0 24 24" fill="none" stroke="currentColor" stroke-width="1.5" stroke-linecap="round" stroke-linejoin="round">
    <path d="M12 3 Q5 12 5 16 Q5 20 12 20 Q19 20 19 16 Q19 12 12 3 Z"></path>
    <path d="M9 16 Q9 18 11 18"></path>
  </symbol>

  <symbol id="icon-services" viewBox="0 0 24 24" fill="none" stroke="currentColor" stroke-width="1.5" stroke-linecap="round" stroke-linejoin="round">
    <circle cx="12" cy="12" r="3"></circle>
    <path d="M12 3 L12 6 M12 18 L12 21 M3 12 L6 12 M18 12 L21 12 M5.6 5.6 L7.7 7.7 M16.3 16.3 L18.4 18.4 M5.6 18.4 L7.7 16.3 M16.3 7.7 L18.4 5.6"></path>
  </symbol>

  <symbol id="icon-landmark" viewBox="0 0 24 24" fill="none" stroke="currentColor" stroke-width="1.5" stroke-linecap="round" stroke-linejoin="round">
    <path d="M4 7 L12 3 L20 7"></path>
    <path d="M4 7 L20 7"></path>
    <path d="M6 9 L6 18"></path>
    <path d="M10 9 L10 18"></path>
    <path d="M14 9 L14 18"></path>
    <path d="M18 9 L18 18"></path>
    <path d="M3 21 L21 21"></path>
    <path d="M4 18 L20 18"></path>
  </symbol>

  <symbol id="icon-desirability" viewBox="0 0 24 24" fill="none" stroke="currentColor" stroke-width="1.5" stroke-linecap="round" stroke-linejoin="round">
    <circle cx="12" cy="12" r="3"></circle>
    <circle cx="12" cy="12" r="6"></circle>
    <circle cx="12" cy="12" r="9"></circle>
    <circle cx="12" cy="12" r="0.5" fill="currentColor"></circle>
  </symbol>

  <symbol id="icon-pollution" viewBox="0 0 24 24" fill="none" stroke="currentColor" stroke-width="1.5" stroke-linecap="round" stroke-linejoin="round">
    <path d="M5 18 Q3 16 5 14 Q3 12 6 11 Q5 8 9 8 Q10 5 13 6 Q15 4 17 7 Q21 7 20 11 Q22 13 19 15 Q20 18 17 18 Z"></path>
    <path d="M9 14 L11 14"></path>
    <path d="M13 11 L16 11"></path>
  </symbol>

  <symbol id="icon-land-value" viewBox="0 0 24 24" fill="none" stroke="currentColor" stroke-width="1.5" stroke-linecap="round" stroke-linejoin="round">
    <ellipse cx="12" cy="6" rx="6" ry="2"></ellipse>
    <path d="M6 6 L6 10 Q6 12 12 12 Q18 12 18 10 L18 6"></path>
    <path d="M6 10 L6 14 Q6 16 12 16 Q18 16 18 14 L18 10"></path>
    <path d="M6 14 L6 18 Q6 20 12 20 Q18 20 18 18 L18 14"></path>
  </symbol>

  <symbol id="icon-heat" viewBox="0 0 24 24" fill="none" stroke="currentColor" stroke-width="1.5" stroke-linecap="round" stroke-linejoin="round">
    <path d="M12 3 Q14 7 14 10 Q14 12 12 12 Q10 12 11 9 Q8 12 8 16 Q8 20 12 21 Q16 20 16 16 Q16 13 14 11"></path>
  </symbol>

  <symbol id="icon-pause" viewBox="0 0 24 24" fill="none" stroke="currentColor" stroke-width="1.5" stroke-linecap="round" stroke-linejoin="round">
    <path d="M8 5 L8 19"></path>
    <path d="M16 5 L16 19"></path>
  </symbol>

  <symbol id="icon-play" viewBox="0 0 24 24" fill="none" stroke="currentColor" stroke-width="1.5" stroke-linecap="round" stroke-linejoin="round">
    <path d="M7 4 L19 12 L7 20 Z"></path>
  </symbol>

  <symbol id="icon-fast-forward" viewBox="0 0 24 24" fill="none" stroke="currentColor" stroke-width="1.5" stroke-linecap="round" stroke-linejoin="round">
    <path d="M3 5 L11 12 L3 19 Z"></path>
    <path d="M13 5 L21 12 L13 19 Z"></path>
  </symbol>

  <symbol id="icon-step" viewBox="0 0 24 24" fill="none" stroke="currentColor" stroke-width="1.5" stroke-linecap="round" stroke-linejoin="round">
    <path d="M5 5 L15 12 L5 19 Z"></path>
    <path d="M19 5 L19 19"></path>
  </symbol>

  <symbol id="icon-alert" viewBox="0 0 24 24" fill="none" stroke="currentColor" stroke-width="1.5" stroke-linecap="round" stroke-linejoin="round">
    <path d="M12 3 L22 20 L2 20 Z"></path>
    <path d="M12 9 L12 14"></path>
    <path d="M12 17 L12 17.5"></path>
  </symbol>

  <symbol id="icon-info" viewBox="0 0 24 24" fill="none" stroke="currentColor" stroke-width="1.5" stroke-linecap="round" stroke-linejoin="round">
    <circle cx="12" cy="12" r="9"></circle>
    <path d="M12 11 L12 17"></path>
    <path d="M12 7 L12 7.5"></path>
  </symbol>

  <symbol id="icon-success" viewBox="0 0 24 24" fill="none" stroke="currentColor" stroke-width="1.5" stroke-linecap="round" stroke-linejoin="round">
    <path d="M4 12 L10 18 L20 6"></path>
  </symbol>

  <symbol id="icon-autosave" viewBox="0 0 24 24" fill="none" stroke="currentColor" stroke-width="1.5" stroke-linecap="round" stroke-linejoin="round">
    <path d="M4 4 L17 4 L20 7 L20 20 L4 20 Z"></path>
    <path d="M8 4 L8 9 L15 9 L15 4"></path>
    <path d="M9 14 Q12 11 15 14"></path>
    <path d="M15 12 L15 14 L13 14"></path>
  </symbol>

</svg>