<?xml version="1.0" encoding="UTF-8"?>
<svg xmlns="http://www.w3.org/2000/svg" viewBox="0 0 400 300" preserveAspectRatio="xMidYMid slice" role="img" aria-label="Pillar — planet">
  <defs>
    <radialGradient id="pp-sky" cx="50%" cy="0%" r="80%">
      <stop offset="0%" style="stop-color: #1a1f2e" />
      <stop offset="100%" style="stop-color: #000" />
    </radialGradient>
    <radialGradient id="pp-pl" cx="40%" cy="50%" r="60%">
      <stop offset="0%" style="stop-color: var(--ds-accent-terrain, #3a9b4a); stop-opacity: 0.2" />
      <stop offset="50%" style="stop-color: #1a2a18" />
      <stop offset="100%" style="stop-color: #000" />
    </radialGradient>
  </defs>
  <rect width="400" height="300" style="fill: url(#pp-sky)"/>
  <g>    <circle cx="0" cy="0" r="0.5" style="fill: var(--ds-raw-text, #e8e8e8); opacity: 0.5"/>
    <circle cx="97" cy="53" r="0.5" style="fill: var(--ds-raw-text, #e8e8e8); opacity: 0.5"/>
    <circle cx="194" cy="106" r="0.5" style="fill: var(--ds-raw-text, #e8e8e8); opacity: 0.5"/>
    <circle cx="291" cy="159" r="0.5" style="fill: var(--ds-raw-text, #e8e8e8); opacity: 0.5"/>
    <circle cx="388" cy="212" r="0.5" style="fill: var(--ds-raw-text, #e8e8e8); opacity: 0.5"/>
    <circle cx="85" cy="265" r="0.5" style="fill: var(--ds-raw-text, #e8e8e8); opacity: 0.5"/>
    <circle cx="182" cy="18" r="0.5" style="fill: var(--ds-raw-text, #e8e8e8); opacity: 0.5"/>
    <circle cx="279" cy="71" r="0.5" style="fill: var(--ds-raw-text, #e8e8e8); opacity: 0.5"/>
    <circle cx="376" cy="124" r="0.5" style="fill: var(--ds-raw-text, #e8e8e8); opacity: 0.5"/>
    <circle cx="73" cy="177" r="0.5" style="fill: var(--ds-raw-text, #e8e8e8); opacity: 0.5"/>
    <circle cx="170" cy="230" r="0.5" style="fill: var(--ds-raw-text, #e8e8e8); opacity: 0.5"/>
    <circle cx="267" cy="283" r="0.5" style="fill: var(--ds-raw-text, #e8e8e8); opacity: 0.5"/>
    <circle cx="364" cy="36" r="0.5" style="fill: var(--ds-raw-text, #e8e8e8); opacity: 0.5"/>
    <circle cx="61" cy="89" r="0.5" style="fill: var(--ds-raw-text, #e8e8e8); opacity: 0.5"/>
    <circle cx="158" cy="142" r="0.5" style="fill: var(--ds-raw-text, #e8e8e8); opacity: 0.5"/>
    <circle cx="255" cy="195" r="0.5" style="fill: var(--ds-raw-text, #e8e8e8); opacity: 0.5"/>
    <circle cx="352" cy="248" r="0.5" style="fill: var(--ds-raw-text, #e8e8e8); opacity: 0.5"/>
    <circle cx="49" cy="1" r="0.5" style="fill: var(--ds-raw-text, #e8e8e8); opacity: 0.5"/>
    <circle cx="146" cy="54" r="0.5" style="fill: var(--ds-raw-text, #e8e8e8); opacity: 0.5"/>
    <circle cx="243" cy="107" r="0.5" style="fill: var(--ds-raw-text, #e8e8e8); opacity: 0.5"/>
    <circle cx="340" cy="160" r="0.5" style="fill: var(--ds-raw-text, #e8e8e8); opacity: 0.5"/>
    <circle cx="37" cy="213" r="0.5" style="fill: var(--ds-raw-text, #e8e8e8); opacity: 0.5"/>
    <circle cx="134" cy="266" r="0.5" style="fill: var(--ds-raw-text, #e8e8e8); opacity: 0.5"/>
    <circle cx="231" cy="19" r="0.5" style="fill: var(--ds-raw-text, #e8e8e8); opacity: 0.5"/>
    <circle cx="328" cy="72" r="0.5" style="fill: var(--ds-raw-text, #e8e8e8); opacity: 0.5"/>
    <circle cx="25" cy="125" r="0.5" style="fill: var(--ds-raw-text, #e8e8e8); opacity: 0.5"/>
    <circle cx="122" cy="178" r="0.5" style="fill: var(--ds-raw-text, #e8e8e8); opacity: 0.5"/>
    <circle cx="219" cy="231" r="0.5" style="fill: var(--ds-raw-text, #e8e8e8); opacity: 0.5"/>
    <circle cx="316" cy="284" r="0.5" style="fill: var(--ds-raw-text, #e8e8e8); opacity: 0.5"/>
    <circle cx="13" cy="37" r="0.5" style="fill: var(--ds-raw-text, #e8e8e8); opacity: 0.5"/>
    <circle cx="110" cy="90" r="0.5" style="fill: var(--ds-raw-text, #e8e8e8); opacity: 0.5"/>
    <circle cx="207" cy="143" r="0.5" style="fill: var(--ds-raw-text, #e8e8e8); opacity: 0.5"/>
    <circle cx="304" cy="196" r="0.5" style="fill: var(--ds-raw-text, #e8e8e8); opacity: 0.5"/>
    <circle cx="1" cy="249" r="0.5" style="fill: var(--ds-raw-text, #e8e8e8); opacity: 0.5"/>
    <circle cx="98" cy="2" r="0.5" style="fill: var(--ds-raw-text, #e8e8e8); opacity: 0.5"/>
    <circle cx="195" cy="55" r="0.5" style="fill: var(--ds-raw-text, #e8e8e8); opacity: 0.5"/>
    <circle cx="292" cy="108" r="0.5" style="fill: var(--ds-raw-text, #e8e8e8); opacity: 0.5"/>
    <circle cx="389" cy="161" r="0.5" style="fill: var(--ds-raw-text, #e8e8e8); opacity: 0.5"/>
    <circle cx="86" cy="214" r="0.5" style="fill: var(--ds-raw-text, #e8e8e8); opacity: 0.5"/>
    <circle cx="183" cy="267" r="0.5" style="fill: var(--ds-raw-text, #e8e8e8); opacity: 0.5"/>
  </g>
  <circle cx="200" cy="260" r="180" style="fill: url(#pp-pl)"/>
  <g style="stroke: var(--ds-accent-water, #4a7bc8); stroke-width: 0.4; fill: none; opacity: 0.3">
    <path d="M20 260 a180 180 0 0 1 360 0" />
    <path d="M20 260 a180 120 0 0 1 360 0" />
    <path d="M20 260 a180 60 0 0 1 360 0" />
  </g>
  <g style="stroke: var(--ds-raw-amber, #e8a33d); stroke-width: 1; fill: none; opacity: 0.8">
    <path d="M10 20 L10 40 L30 40"/><path d="M390 20 L390 40 L370 40"/>
  </g>
</svg>
