<svg xmlns="http://www.w3.org/2000/svg" viewBox="0 0 400 300" role="img" aria-label="Pillar — signal">
  <rect width="400" height="300" style="fill: var(--ds-raw-black, #0a0a0a)" />
  <g style="stroke: var(--ds-accent-terrain, #3a9b4a); fill: none; stroke-width: 1.2; opacity: 0.9">
    <path d="M0 150 L20 150 L30 80 L45 220 L60 100 L75 180 L95 140 L110 160 L130 90 L145 200 L160 130 L180 150 L200 110 L220 170 L235 140 L255 160 L275 100 L295 190 L315 130 L335 150 L360 150 L400 150" />
    <path
      d="M0 150 L20 150 L30 80 L45 220 L60 100 L75 180 L95 140 L110 160 L130 90 L145 200 L160 130 L180 150 L200 110 L220 170 L235 140 L255 160 L275 100 L295 190 L315 130 L335 150 L360 150 L400 150"
      opacity="0.3"
      transform="translate(0 2)"
    />
  </g>
  <g style="stroke: var(--ds-raw-text, #e8e8e8); stroke-width: 0.3; opacity: 0.08; fill: none">
    <line x1="0" y1="0" x2="0" y2="300" />
    <line x1="20" y1="0" x2="20" y2="300" />
    <line x1="40" y1="0" x2="40" y2="300" />
    <line x1="60" y1="0" x2="60" y2="300" />
    <line x1="80" y1="0" x2="80" y2="300" />
    <line x1="100" y1="0" x2="100" y2="300" />
    <line x1="120" y1="0" x2="120" y2="300" />
    <line x1="140" y1="0" x2="140" y2="300" />
    <line x1="160" y1="0" x2="160" y2="300" />
    <line x1="180" y1="0" x2="180" y2="300" />
    <line x1="200" y1="0" x2="200" y2="300" />
    <line x1="220" y1="0" x2="220" y2="300" />
    <line x1="240" y1="0" x2="240" y2="300" />
    <line x1="260" y1="0" x2="260" y2="300" />
    <line x1="280" y1="0" x2="280" y2="300" />
    <line x1="300" y1="0" x2="300" y2="300" />
    <line x1="320" y1="0" x2="320" y2="300" />
    <line x1="340" y1="0" x2="340" y2="300" />
    <line x1="360" y1="0" x2="360" y2="300" />
    <line x1="380" y1="0" x2="380" y2="300" />
    <line x1="0" y1="0" x2="400" y2="0" />
    <line x1="0" y1="20" x2="400" y2="20" />
    <line x1="0" y1="40" x2="400" y2="40" />
    <line x1="0" y1="60" x2="400" y2="60" />
    <line x1="0" y1="80" x2="400" y2="80" />
    <line x1="0" y1="100" x2="400" y2="100" />
    <line x1="0" y1="120" x2="400" y2="120" />
    <line x1="0" y1="140" x2="400" y2="140" />
    <line x1="0" y1="160" x2="400" y2="160" />
    <line x1="0" y1="180" x2="400" y2="180" />
    <line x1="0" y1="200" x2="400" y2="200" />
    <line x1="0" y1="220" x2="400" y2="220" />
    <line x1="0" y1="240" x2="400" y2="240" />
    <line x1="0" y1="260" x2="400" y2="260" />
    <line x1="0" y1="280" x2="400" y2="280" />
  </g>
  <g style="font-family: Geist Mono, ui-monospace, monospace; font-size: 9px; fill: var(--ds-raw-amber, #e8a33d); letter-spacing: 0.2em; opacity: 0.7">
    <text x="16" y="30">CH 01 // SIGNAL</text>
    <text x="16" y="44" opacity="0.5">48kHz · 24bit</text>
  </g>
</svg>
