<svg xmlns="http://www.w3.org/2000/svg" viewBox="0 0 400 300" role="img" aria-label="Pillar — tape">
  <rect width="400" height="300" style="fill: #1a1a1a" />
  <g transform="translate(130 150)">
    <circle r="70" style="fill: #0a0a0a; stroke: #000; stroke-width: 2" />
    <circle r="65" style="fill: none; stroke: #2a2a2a; stroke-width: 1" />
    <g style="stroke: var(--ds-raw-amber, #e8a33d); stroke-width: 3; opacity: 0.8; fill: none">
      <line x1="20" y1="0" x2="55" y2="0" transform="rotate(0)" />
      <line x1="20" y1="0" x2="55" y2="0" transform="rotate(60)" />
      <line x1="20" y1="0" x2="55" y2="0" transform="rotate(120)" />
      <line x1="20" y1="0" x2="55" y2="0" transform="rotate(180)" />
      <line x1="20" y1="0" x2="55" y2="0" transform="rotate(240)" />
      <line x1="20" y1="0" x2="55" y2="0" transform="rotate(300)" />
    </g>
    <circle r="12" style="fill: #2a2a2a; stroke: #000" />
    <circle r="3" style="fill: var(--ds-raw-amber, #e8a33d)" />
  </g>
  <g transform="translate(270 150)">
    <circle r="70" style="fill: #0a0a0a; stroke: #000; stroke-width: 2" />
    <circle r="65" style="fill: none; stroke: #2a2a2a; stroke-width: 1" />
    <g style="stroke: var(--ds-raw-amber, #e8a33d); stroke-width: 3; opacity: 0.8; fill: none">
      <line x1="20" y1="0" x2="55" y2="0" transform="rotate(0)" />
      <line x1="20" y1="0" x2="55" y2="0" transform="rotate(60)" />
      <line x1="20" y1="0" x2="55" y2="0" transform="rotate(120)" />
      <line x1="20" y1="0" x2="55" y2="0" transform="rotate(180)" />
      <line x1="20" y1="0" x2="55" y2="0" transform="rotate(240)" />
      <line x1="20" y1="0" x2="55" y2="0" transform="rotate(300)" />
    </g>
    <circle r="12" style="fill: #2a2a2a; stroke: #000" />
    <circle r="3" style="fill: var(--ds-raw-amber, #e8a33d)" />
  </g>
  <path
    d="M195 150 Q200 230 205 150"
    style="fill: none; stroke: #3a2a10; stroke-width: 4"
  />
  <rect
    x="60"
    y="225"
    width="280"
    height="40"
    style="fill: #0a0a0a; stroke: #000"
  />
  <g style="font-family: Geist Mono, ui-monospace, monospace; font-size: 9px; fill: var(--ds-raw-amber, #e8a33d); letter-spacing: 0.2em; opacity: 0.8">
    <text x="16" y="24">TAPE // REC</text>
  </g>
</svg>
